<?xml version="1.0" encoding="UTF-8" standalone="no"?>
<svg
   xmlns:dc="http://purl.org/dc/elements/1.1/"
   xmlns:cc="http://creativecommons.org/ns#"
   xmlns:rdf="http://www.w3.org/1999/02/22-rdf-syntax-ns#"
   xmlns:svg="http://www.w3.org/2000/svg"
   xmlns="http://www.w3.org/2000/svg"
   viewBox="0 0 546.58752 547.72626"
   height="547.72626"
   width="546.58752"
   xml:space="preserve"
   version="1.1"
   id="svg2"><metadata
     id="metadata8"><rdf:RDF><cc:Work
         rdf:about=""><dc:format>image/svg+xml</dc:format><dc:type
           rdf:resource="http://purl.org/dc/dcmitype/StillImage" /></cc:Work></rdf:RDF></metadata><defs
     id="defs6"><clipPath
       id="clipPath16"
       clipPathUnits="userSpaceOnUse"><path
         id="path18"
         d="m 0,438.181 437.271,0 L 437.271,0 0,0 0,438.181 Z" /></clipPath></defs><g
     transform="matrix(1.25,0,0,-1.25,0,547.72625)"
     id="g10"><g
       id="g12"><g
         clip-path="url(#clipPath16)"
         id="g14"><g
           transform="translate(395.8295,234.8267)"
           id="g20"><path
             id="path22"
             style="fill:#232020;fill-opacity:1;fill-rule:nonzero;stroke:none"
             d="m 0,0 c 8.242,-96.555 -63.35,-181.51 -159.905,-189.752 -96.555,-8.242 -181.51,63.35 -189.752,159.905 -8.242,96.555 63.35,181.51 159.905,189.752 C -93.197,168.147 -8.242,96.555 0,0" /></g><g
           transform="translate(46.33,270.8948)"
           id="g24"><path
             id="path26"
             style="fill:#232020;fill-opacity:1;fill-rule:nonzero;stroke:none"
             d="m 0,0 -27.608,2.341 c 0,0 37.245,6.301 13.799,37.627 L 9.119,24.475 0,0 Z" /></g><g
           transform="translate(65.6886,314.7528)"
           id="g28"><path
             id="path30"
             style="fill:#232020;fill-opacity:1;fill-rule:nonzero;stroke:none"
             d="m 0,0 -26.02,9.513 c 0,0 37.598,-3.71 23.204,32.673 L 15.232,21.215 0,0 Z" /></g><g
           transform="translate(95.0977,351.226)"
           id="g32"><path
             id="path34"
             style="fill:#232020;fill-opacity:1;fill-rule:nonzero;stroke:none"
             d="m 0,0 -22.695,15.884 c 0,0 35.377,-13.258 30.827,25.609 L 20.18,16.58 0,0 Z" /></g><g
           transform="translate(133.6909,379.334)"
           id="g36"><path
             id="path38"
             style="fill:#232020;fill-opacity:1;fill-rule:nonzero;stroke:none"
             d="m 0,0 -17.748,21.272 c 0,0 30.669,-22.049 36.459,16.655 L 23.817,10.72 0,0 Z" /></g><g
           transform="translate(177.6668,396.4597)"
           id="g40"><path
             id="path42"
             style="fill:#232020;fill-opacity:1;fill-rule:nonzero;stroke:none"
             d="m 0,0 -11.672,25.117 c 0,0 23.96,-29.193 39.512,6.716 L 25.772,4.23 0,0 Z" /></g><g
           transform="translate(224.8921,401.688)"
           id="g44"><path
             id="path46"
             style="fill:#232020;fill-opacity:1;fill-rule:nonzero;stroke:none"
             d="m 0,0 -4.779,27.287 c 0,0 15.585,-34.416 39.907,-3.754 L 25.99,-2.588 0,0 Z" /></g><g
           transform="translate(271.8847,394.4933)"
           id="g48"><path
             id="path50"
             style="fill:#232020;fill-opacity:1;fill-rule:nonzero;stroke:none"
             d="m 0,0 2.46,27.591 c 0,0 6.137,-37.268 37.573,-13.96 L 24.431,-9.231 0,0 Z" /></g><g
           transform="translate(316.3198,374.8191)"
           id="g52"><path
             id="path54"
             style="fill:#232020;fill-opacity:1;fill-rule:nonzero;stroke:none"
             d="m 0,0 9.678,25.952 c 0,0 -3.96,-37.56 32.536,-23.405 L 21.112,-15.372 0,0 Z" /></g><g
           transform="translate(352.5831,345.5292)"
           id="g56"><path
             id="path58"
             style="fill:#232020;fill-opacity:1;fill-rule:nonzero;stroke:none"
             d="m 0,0 15.962,22.645 c 0,0 -13.375,-35.326 25.507,-30.906 L 16.517,-20.23 0,0 Z" /></g><g
           transform="translate(380.4641,307.538)"
           id="g60"><path
             id="path62"
             style="fill:#232020;fill-opacity:1;fill-rule:nonzero;stroke:none"
             d="m 0,0 21.239,17.78 c 0,0 -21.997,-30.694 16.713,-36.425 L 10.762,-23.794 0,0 Z" /></g><g
           transform="translate(397.6481,263.6574)"
           id="g64"><path
             id="path66"
             style="fill:#232020;fill-opacity:1;fill-rule:nonzero;stroke:none"
             d="m 0,0 25.089,11.726 c 0,0 -29.143,-24.014 6.794,-39.492 L 4.287,-25.754 0,0 Z" /></g><g
           transform="translate(402.9626,216.2525)"
           id="g68"><path
             id="path70"
             style="fill:#232020;fill-opacity:1;fill-rule:nonzero;stroke:none"
             d="m 0,0 27.284,4.808 c 0,0 -34.391,-15.617 -3.702,-39.91 L -2.549,-25.988 0,0 Z" /></g><g
           transform="translate(395.8111,169.2012)"
           id="g72"><path
             id="path74"
             style="fill:#232020;fill-opacity:1;fill-rule:nonzero;stroke:none"
             d="m 0,0 27.594,-2.448 c 0,0 -37.264,-6.148 -13.938,-37.567 L -9.213,-24.44 0,0 Z" /></g><g
           transform="translate(376.4834,125.3136)"
           id="g76"><path
             id="path78"
             style="fill:#232020;fill-opacity:1;fill-rule:nonzero;stroke:none"
             d="m 0,0 26.016,-9.512 c 0,0 -37.587,3.719 -23.206,-32.677 L -15.229,-21.205 0,0 Z" /></g><g
           transform="translate(346.7689,88.2712)"
           id="g80"><path
             id="path82"
             style="fill:#232020;fill-opacity:1;fill-rule:nonzero;stroke:none"
             d="m 0,0 22.697,-15.883 c 0,0 -35.366,13.254 -30.823,-25.613 L -20.173,-16.578 0,0 Z" /></g><g
           transform="translate(308.7474,60.2247)"
           id="g84"><path
             id="path86"
             style="fill:#232020;fill-opacity:1;fill-rule:nonzero;stroke:none"
             d="m 0,0 17.88,-21.16 c 0,0 -30.796,21.854 -36.343,-16.879 L -23.739,-10.877 0,0 Z" /></g><g
           transform="translate(264.82,42.8306)"
           id="g88"><path
             id="path90"
             style="fill:#232020;fill-opacity:1;fill-rule:nonzero;stroke:none"
             d="m 0,0 11.886,-25.029 c 0,0 -24.196,29.003 -39.462,-7.026 L -25.728,-4.444 0,0 Z" /></g><g
           transform="translate(217.0167,37.2628)"
           id="g92"><path
             id="path94"
             style="fill:#232020;fill-opacity:1;fill-rule:nonzero;stroke:none"
             d="m 0,0 4.955,-27.254 c 0,0 -15.809,34.296 -39.931,3.484 L -26,2.411 0,0 Z" /></g><g
           transform="translate(169.515,44.9276)"
           id="g96"><path
             id="path98"
             style="fill:#232020;fill-opacity:1;fill-rule:nonzero;stroke:none"
             d="m 0,0 -2.262,-27.608 c 0,0 -6.395,37.219 -37.669,13.696 L -24.496,9.053 0,0 Z" /></g><g
           transform="translate(126.8253,63.5833)"
           id="g100"><path
             id="path102"
             style="fill:#232020;fill-opacity:1;fill-rule:nonzero;stroke:none"
             d="m 0,0 -9.347,-26.078 c 0,0 3.465,37.602 -32.835,22.987 L -21.314,15.092 0,0 Z" /></g><g
           transform="translate(89.083,93.3223)"
           id="g104"><path
             id="path106"
             style="fill:#232020;fill-opacity:1;fill-rule:nonzero;stroke:none"
             d="m 0,0 -15.822,-22.736 c 0,0 13.157,35.4 -25.695,30.762 L -16.629,20.132 0,0 Z" /></g><g
           transform="translate(61.9005,131.8322)"
           id="g108"><path
             id="path110"
             style="fill:#232020;fill-opacity:1;fill-rule:nonzero;stroke:none"
             d="m 0,0 -21.161,-17.867 c 0,0 21.866,30.787 -16.871,36.355 l 27.17,5.258 L 0,0 Z" /></g><g
           transform="translate(44.1096,176.7856)"
           id="g112"><path
             id="path114"
             style="fill:#232020;fill-opacity:1;fill-rule:nonzero;stroke:none"
             d="m 0,0 -25.116,-11.682 c 0,0 29.19,23.966 -6.721,39.51 L -4.24,25.766 0,0 Z" /></g><g
           transform="translate(38.6564,224.011)"
           id="g116"><path
             id="path118"
             style="fill:#232020;fill-opacity:1;fill-rule:nonzero;stroke:none"
             d="m 0,0 -27.278,-4.796 c 0,0 34.386,15.615 3.714,39.904 L 2.567,25.993 0,0 Z" /></g><g
           transform="translate(364.1079,264.6136)"
           id="g120"><path
             id="path122"
             style="fill:none;stroke:#ec1c25;stroke-width:7.86299992;stroke-linecap:butt;stroke-linejoin:miter;stroke-miterlimit:4;stroke-dasharray:none;stroke-opacity:1"
             d="m 0,0 c 24.858,-79.002 -19.029,-163.197 -98.028,-188.054 -79.006,-24.86 -163.198,19.034 -188.056,98.036 -24.857,78.997 19.032,163.189 98.038,188.048 C -109.048,122.888 -24.857,78.997 0,0 Z" /></g><g
           transform="translate(169.5226,287.3291)"
           id="g124"><path
             id="path126"
             style="fill:#ffffff;fill-opacity:1;fill-rule:nonzero;stroke:none"
             d="m 0,0 9.909,-10.359 14.152,2.294 -6.788,-12.625 6.551,-12.75 -14.106,2.554 -10.1,-10.171 -1.93,14.205 -12.793,6.463 12.913,6.223 L 0,0 Z" /></g><g
           transform="translate(358.515,231.3331)"
           id="g128"><path
             id="path130"
             style="fill:none;stroke:#ffffff;stroke-width:2.66199994;stroke-linecap:butt;stroke-linejoin:miter;stroke-miterlimit:4;stroke-dasharray:none;stroke-opacity:1"
             d="m 0,0 c 6.48,-75.91 -49.805,-142.701 -125.715,-149.18 -75.911,-6.48 -142.701,49.805 -149.181,125.715 -6.479,75.91 49.805,142.701 125.716,149.18 C -73.27,132.195 -6.48,75.91 0,0 Z" /></g><g
           transform="translate(313.7114,189.4511)"
           id="g132"><path
             id="path134"
             style="fill:none;stroke:#ffffff;stroke-width:2;stroke-linecap:butt;stroke-linejoin:miter;stroke-miterlimit:10;stroke-dasharray:none;stroke-opacity:1"
             d="M 0,0 C -7.135,-21.87 -22.22,-40.897 -41.828,-52.914 -63.181,-66 -89.503,-70.284 -113.93,-64.827 c -13.39,2.992 -26.105,8.89 -37.074,17.127" /></g><g
           transform="translate(312.537,189.1266)"
           id="g136"><path
             id="path138"
             style="fill:none;stroke:#ffffff;stroke-width:2;stroke-linecap:butt;stroke-linejoin:miter;stroke-miterlimit:10;stroke-dasharray:none;stroke-opacity:1"
             d="M 0,0 26.917,-8.979" /></g><g
           transform="translate(321.439,145.4776)"
           id="g140"><path
             id="path142"
             style="fill:none;stroke:#ffffff;stroke-width:2;stroke-linecap:butt;stroke-linejoin:miter;stroke-miterlimit:10;stroke-dasharray:none;stroke-opacity:1"
             d="M 0,0 -22.025,16.276" /></g><g
           transform="translate(277.6689,140.3746)"
           id="g144"><path
             id="path146"
             style="fill:none;stroke:#ffffff;stroke-width:2;stroke-linecap:butt;stroke-linejoin:miter;stroke-miterlimit:10;stroke-dasharray:none;stroke-opacity:1"
             d="M 0,0 15.903,-22.29" /></g><g
           transform="translate(250.3812,126.7753)"
           id="g148"><path
             id="path150"
             style="fill:none;stroke:#ffffff;stroke-width:2;stroke-linecap:butt;stroke-linejoin:miter;stroke-miterlimit:10;stroke-dasharray:none;stroke-opacity:1"
             d="M 0,0 8.222,-26.123" /></g><g
           transform="translate(220.2148,122.2788)"
           id="g152"><path
             id="path154"
             style="fill:none;stroke:#ffffff;stroke-width:2;stroke-linecap:butt;stroke-linejoin:miter;stroke-miterlimit:10;stroke-dasharray:none;stroke-opacity:1"
             d="M 0,0 -0.254,-27.38" /></g><g
           transform="translate(190.1431,127.345)"
           id="g156"><path
             id="path158"
             style="fill:none;stroke:#ffffff;stroke-width:2;stroke-linecap:butt;stroke-linejoin:miter;stroke-miterlimit:10;stroke-dasharray:none;stroke-opacity:1"
             d="M 0,0 -8.717,-25.962" /></g><g
           transform="translate(163.7034,142.2576)"
           id="g160"><path
             id="path162"
             style="fill:none;stroke:#ffffff;stroke-width:2;stroke-linecap:butt;stroke-linejoin:miter;stroke-miterlimit:10;stroke-dasharray:none;stroke-opacity:1"
             d="M 0,0 -16.907,-22.783" /></g><g
           transform="translate(307.5226,174.7405)"
           id="g164"><path
             id="path166"
             style="fill:none;stroke:#ffffff;stroke-width:2;stroke-linecap:butt;stroke-linejoin:miter;stroke-miterlimit:10;stroke-dasharray:none;stroke-opacity:1"
             d="M 0,0 16.194,-8.416" /></g><g
           transform="translate(302.1927,137.2057)"
           id="g168"><path
             id="path170"
             style="fill:none;stroke:#ffffff;stroke-width:2;stroke-linecap:butt;stroke-linejoin:miter;stroke-miterlimit:10;stroke-dasharray:none;stroke-opacity:1"
             d="M 0,0 -12.801,13.013" /></g><g
           transform="translate(272.7151,116.1708)"
           id="g172"><path
             id="path174"
             style="fill:none;stroke:#ffffff;stroke-width:2;stroke-linecap:butt;stroke-linejoin:miter;stroke-miterlimit:10;stroke-dasharray:none;stroke-opacity:1"
             d="M 0,0 -8.144,16.34" /></g><g
           transform="translate(235.4816,123.3448)"
           id="g176"><path
             id="path178"
             style="fill:none;stroke:#ffffff;stroke-width:2;stroke-linecap:butt;stroke-linejoin:miter;stroke-miterlimit:10;stroke-dasharray:none;stroke-opacity:1"
             d="M 0,0 2.69,-18.055" /></g><g
           transform="translate(204.9899,123.6277)"
           id="g180"><path
             id="path182"
             style="fill:none;stroke:#ffffff;stroke-width:2;stroke-linecap:butt;stroke-linejoin:miter;stroke-miterlimit:10;stroke-dasharray:none;stroke-opacity:1"
             d="M 0,0 -3.028,-18.001" /></g><g
           transform="translate(176.0825,133.3321)"
           id="g184"><path
             id="path186"
             style="fill:none;stroke:#ffffff;stroke-width:2;stroke-linecap:butt;stroke-linejoin:miter;stroke-miterlimit:10;stroke-dasharray:none;stroke-opacity:1"
             d="M 0,0 -8.453,-16.18" /></g><g
           transform="translate(318.5654,178.2616)"
           id="g188"><path
             id="path190"
             style="fill:none;stroke:#ffffff;stroke-width:2;stroke-linecap:butt;stroke-linejoin:miter;stroke-miterlimit:10;stroke-dasharray:none;stroke-opacity:1"
             d="M 0,0 -7.827,3.328" /></g><g
           transform="translate(303.6763,168.0355)"
           id="g192"><path
             id="path194"
             style="fill:none;stroke:#ffffff;stroke-width:2;stroke-linecap:butt;stroke-linejoin:miter;stroke-miterlimit:10;stroke-dasharray:none;stroke-opacity:1"
             d="M 0,0 7.22,-4.514" /></g><g
           transform="translate(294.5832,155.7537)"
           id="g196"><path
             id="path198"
             style="fill:none;stroke:#ffffff;stroke-width:2;stroke-linecap:butt;stroke-linejoin:miter;stroke-miterlimit:10;stroke-dasharray:none;stroke-opacity:1"
             d="M 0,0 6.421,-5.587" /></g><g
           transform="translate(283.6842,145.0468)"
           id="g200"><path
             id="path202"
             style="fill:none;stroke:#ffffff;stroke-width:2;stroke-linecap:butt;stroke-linejoin:miter;stroke-miterlimit:10;stroke-dasharray:none;stroke-opacity:1"
             d="M 0,0 5.466,-6.521" /></g><g
           transform="translate(275.6213,128.8841)"
           id="g204"><path
             id="path206"
             style="fill:none;stroke:#ffffff;stroke-width:2;stroke-linecap:butt;stroke-linejoin:miter;stroke-miterlimit:10;stroke-dasharray:none;stroke-opacity:1"
             d="M 0,0 -4.382,7.295" /></g><g
           transform="translate(257.5614,129.3695)"
           id="g208"><path
             id="path210"
             style="fill:none;stroke:#ffffff;stroke-width:2;stroke-linecap:butt;stroke-linejoin:miter;stroke-miterlimit:10;stroke-dasharray:none;stroke-opacity:1"
             d="M 0,0 3.185,-7.897" /></g><g
           transform="translate(242.9873,124.7808)"
           id="g212"><path
             id="path214"
             style="fill:none;stroke:#ffffff;stroke-width:2;stroke-linecap:butt;stroke-linejoin:miter;stroke-miterlimit:10;stroke-dasharray:none;stroke-opacity:1"
             d="M 0,0 1.909,-8.293" /></g><g
           transform="translate(227.8721,122.5308)"
           id="g216"><path
             id="path218"
             style="fill:none;stroke:#ffffff;stroke-width:2;stroke-linecap:butt;stroke-linejoin:miter;stroke-miterlimit:10;stroke-dasharray:none;stroke-opacity:1"
             d="M 0,0 0.593,-8.49" /></g><g
           transform="translate(212.597,122.6752)"
           id="g220"><path
             id="path222"
             style="fill:none;stroke:#ffffff;stroke-width:2;stroke-linecap:butt;stroke-linejoin:miter;stroke-miterlimit:10;stroke-dasharray:none;stroke-opacity:1"
             d="M 0,0 -0.752,-8.484" /></g><g
           transform="translate(197.5302,125.204)"
           id="g224"><path
             id="path226"
             style="fill:none;stroke:#ffffff;stroke-width:2;stroke-linecap:butt;stroke-linejoin:miter;stroke-miterlimit:10;stroke-dasharray:none;stroke-opacity:1"
             d="M 0,0 -2.069,-8.256" /></g><g
           transform="translate(183.0383,130.0613)"
           id="g228"><path
             id="path230"
             style="fill:none;stroke:#ffffff;stroke-width:2;stroke-linecap:butt;stroke-linejoin:miter;stroke-miterlimit:10;stroke-dasharray:none;stroke-opacity:1"
             d="M 0,0 -3.328,-7.831" /></g><g
           transform="translate(169.4956,137.1332)"
           id="g232"><path
             id="path234"
             style="fill:none;stroke:#ffffff;stroke-width:2;stroke-linecap:butt;stroke-linejoin:miter;stroke-miterlimit:10;stroke-dasharray:none;stroke-opacity:1"
             d="M 0,0 -4.524,-7.222" /></g><g
           transform="translate(125.0617,235.4387)"
           id="g236"><path
             id="path238"
             style="fill:none;stroke:#ffffff;stroke-width:2;stroke-linecap:butt;stroke-linejoin:miter;stroke-miterlimit:10;stroke-dasharray:none;stroke-opacity:1"
             d="m 0,0 c 4.298,26.287 19.811,50.242 41.903,65.088 24.032,16.148 55.073,20.654 82.744,12.188 15.488,-4.739 29.697,-13.456 41.024,-25.025" /></g><g
           transform="translate(221.8299,344.3561)"
           id="g240"><path
             id="path242"
             style="fill:none;stroke:#ffffff;stroke-width:2;stroke-linecap:butt;stroke-linejoin:miter;stroke-miterlimit:10;stroke-dasharray:none;stroke-opacity:1"
             d="M 0,0 -0.153,-27.38" /></g><g
           transform="translate(251.7708,312.0331)"
           id="g244"><path
             id="path246"
             style="fill:none;stroke:#ffffff;stroke-width:2;stroke-linecap:butt;stroke-linejoin:miter;stroke-miterlimit:10;stroke-dasharray:none;stroke-opacity:1"
             d="M 0,0 8.615,25.987" /></g><g
           transform="translate(295.0924,320.0641)"
           id="g248"><path
             id="path250"
             style="fill:none;stroke:#ffffff;stroke-width:2;stroke-linecap:butt;stroke-linejoin:miter;stroke-miterlimit:10;stroke-dasharray:none;stroke-opacity:1"
             d="M 0,0 -16.234,-22.043" /></g><g
           transform="translate(128.9144,250.8026)"
           id="g252"><path
             id="path254"
             style="fill:none;stroke:#ffffff;stroke-width:2;stroke-linecap:butt;stroke-linejoin:miter;stroke-miterlimit:10;stroke-dasharray:none;stroke-opacity:1"
             d="M 0,0 -25.942,8.763" /></g><g
           transform="translate(143.0807,277.8021)"
           id="g256"><path
             id="path258"
             style="fill:none;stroke:#ffffff;stroke-width:2;stroke-linecap:butt;stroke-linejoin:miter;stroke-miterlimit:10;stroke-dasharray:none;stroke-opacity:1"
             d="M 0,0 -21.95,16.362" /></g><g
           transform="translate(164.9141,299.0994)"
           id="g260"><path
             id="path262"
             style="fill:none;stroke:#ffffff;stroke-width:2;stroke-linecap:butt;stroke-linejoin:miter;stroke-miterlimit:10;stroke-dasharray:none;stroke-opacity:1"
             d="M 0,0 -15.82,22.349" /></g><g
           transform="translate(192.2565,312.5975)"
           id="g264"><path
             id="path266"
             style="fill:none;stroke:#ffffff;stroke-width:2;stroke-linecap:butt;stroke-linejoin:miter;stroke-miterlimit:10;stroke-dasharray:none;stroke-opacity:1"
             d="M 0,0 -8.115,26.143" /></g><g
           transform="translate(236.9046,315.6953)"
           id="g268"><path
             id="path270"
             style="fill:none;stroke:#ffffff;stroke-width:2;stroke-linecap:butt;stroke-linejoin:miter;stroke-miterlimit:10;stroke-dasharray:none;stroke-opacity:1"
             d="M 0,0 2.96,18.01" /></g><g
           transform="translate(265.8533,306.0992)"
           id="g272"><path
             id="path274"
             style="fill:none;stroke:#ffffff;stroke-width:2;stroke-linecap:butt;stroke-linejoin:miter;stroke-miterlimit:10;stroke-dasharray:none;stroke-opacity:1"
             d="M 0,0 8.384,16.217" /></g><g
           transform="translate(303.3964,300.8472)"
           id="g276"><path
             id="path278"
             style="fill:none;stroke:#ffffff;stroke-width:2;stroke-linecap:butt;stroke-linejoin:miter;stroke-miterlimit:10;stroke-dasharray:none;stroke-opacity:1"
             d="M 0,0 -13.685,-13.518" /></g><g
           transform="translate(126.1383,235.7992)"
           id="g280"><path
             id="path282"
             style="fill:none;stroke:#ffffff;stroke-width:2;stroke-linecap:butt;stroke-linejoin:miter;stroke-miterlimit:10;stroke-dasharray:none;stroke-opacity:1"
             d="M 0,0 -18.967,3.217" /></g><g
           transform="translate(134.9309,264.8552)"
           id="g284"><path
             id="path286"
             style="fill:none;stroke:#ffffff;stroke-width:2;stroke-linecap:butt;stroke-linejoin:miter;stroke-miterlimit:10;stroke-dasharray:none;stroke-opacity:1"
             d="M 0,0 -16.174,8.469" /></g><g
           transform="translate(140.4024,302.3639)"
           id="g288"><path
             id="path290"
             style="fill:none;stroke:#ffffff;stroke-width:2;stroke-linecap:butt;stroke-linejoin:miter;stroke-miterlimit:10;stroke-dasharray:none;stroke-opacity:1"
             d="M 0,0 12.747,-13.059" /></g><g
           transform="translate(169.9575,323.2859)"
           id="g292"><path
             id="path294"
             style="fill:none;stroke:#ffffff;stroke-width:2;stroke-linecap:butt;stroke-linejoin:miter;stroke-miterlimit:10;stroke-dasharray:none;stroke-opacity:1"
             d="M 0,0 8.086,-16.367" /></g><g
           transform="translate(204.5343,334.0286)"
           id="g296"><path
             id="path298"
             style="fill:none;stroke:#ffffff;stroke-width:2;stroke-linecap:butt;stroke-linejoin:miter;stroke-miterlimit:10;stroke-dasharray:none;stroke-opacity:1"
             d="M 0,0 2.628,-18.058" /></g><g
           transform="translate(230.3033,325.0834)"
           id="g300"><path
             id="path302"
             style="fill:none;stroke:#ffffff;stroke-width:2;stroke-linecap:butt;stroke-linejoin:miter;stroke-miterlimit:10;stroke-dasharray:none;stroke-opacity:1"
             d="M 0,0 -0.732,-8.473" /></g><g
           transform="translate(244.6383,314.0948)"
           id="g304"><path
             id="path306"
             style="fill:none;stroke:#ffffff;stroke-width:2;stroke-linecap:butt;stroke-linejoin:miter;stroke-miterlimit:10;stroke-dasharray:none;stroke-opacity:1"
             d="M 0,0 2.055,8.253" /></g><g
           transform="translate(259.1368,309.2513)"
           id="g308"><path
             id="path310"
             style="fill:none;stroke:#ffffff;stroke-width:2;stroke-linecap:butt;stroke-linejoin:miter;stroke-miterlimit:10;stroke-dasharray:none;stroke-opacity:1"
             d="M 0,0 3.318,7.834" /></g><g
           transform="translate(272.6911,302.1986)"
           id="g312"><path
             id="path314"
             style="fill:none;stroke:#ffffff;stroke-width:2;stroke-linecap:butt;stroke-linejoin:miter;stroke-miterlimit:10;stroke-dasharray:none;stroke-opacity:1"
             d="M 0,0 4.499,7.218" /></g><g
           transform="translate(284.9779,293.1147)"
           id="g316"><path
             id="path318"
             style="fill:none;stroke:#ffffff;stroke-width:2;stroke-linecap:butt;stroke-linejoin:miter;stroke-miterlimit:10;stroke-dasharray:none;stroke-opacity:1"
             d="M 0,0 5.574,6.427" /></g><g
           transform="translate(118.4699,245.3713)"
           id="g320"><path
             id="path322"
             style="fill:none;stroke:#ffffff;stroke-width:2;stroke-linecap:butt;stroke-linejoin:miter;stroke-miterlimit:10;stroke-dasharray:none;stroke-opacity:1"
             d="M 0,0 8.249,-2.073" /></g><g
           transform="translate(131.5892,257.7835)"
           id="g324"><path
             id="path326"
             style="fill:none;stroke:#ffffff;stroke-width:2;stroke-linecap:butt;stroke-linejoin:miter;stroke-miterlimit:10;stroke-dasharray:none;stroke-opacity:1"
             d="M 0,0 -7.831,3.341" /></g><g
           transform="translate(138.6625,271.3287)"
           id="g328"><path
             id="path330"
             style="fill:none;stroke:#ffffff;stroke-width:2;stroke-linecap:butt;stroke-linejoin:miter;stroke-miterlimit:10;stroke-dasharray:none;stroke-opacity:1"
             d="M 0,0 -7.216,4.521" /></g><g
           transform="translate(147.7657,283.599)"
           id="g332"><path
             id="path334"
             style="fill:none;stroke:#ffffff;stroke-width:2;stroke-linecap:butt;stroke-linejoin:miter;stroke-miterlimit:10;stroke-dasharray:none;stroke-opacity:1"
             d="M 0,0 -6.415,5.592" /></g><g
           transform="translate(153.2179,300.8204)"
           id="g336"><path
             id="path338"
             style="fill:none;stroke:#ffffff;stroke-width:2;stroke-linecap:butt;stroke-linejoin:miter;stroke-miterlimit:10;stroke-dasharray:none;stroke-opacity:1"
             d="M 0,0 5.468,-6.528" /></g><g
           transform="translate(171.1376,303.1451)"
           id="g340"><path
             id="path342"
             style="fill:none;stroke:#ffffff;stroke-width:2;stroke-linecap:butt;stroke-linejoin:miter;stroke-miterlimit:10;stroke-dasharray:none;stroke-opacity:1"
             d="M 0,0 -4.374,7.308" /></g><g
           transform="translate(184.8165,309.9433)"
           id="g344"><path
             id="path346"
             style="fill:none;stroke:#ffffff;stroke-width:2;stroke-linecap:butt;stroke-linejoin:miter;stroke-miterlimit:10;stroke-dasharray:none;stroke-opacity:1"
             d="M 0,0 -3.175,7.895" /></g><g
           transform="translate(197.4997,322.8075)"
           id="g348"><path
             id="path350"
             style="fill:none;stroke:#ffffff;stroke-width:2;stroke-linecap:butt;stroke-linejoin:miter;stroke-miterlimit:10;stroke-dasharray:none;stroke-opacity:1"
             d="M 0,0 1.901,-8.301" /></g><g
           transform="translate(214.5122,316.7461)"
           id="g352"><path
             id="path354"
             style="fill:none;stroke:#ffffff;stroke-width:2;stroke-linecap:butt;stroke-linejoin:miter;stroke-miterlimit:10;stroke-dasharray:none;stroke-opacity:1"
             d="M 0,0 -0.579,8.495" /></g><g
           transform="translate(116.9174,200.5503)"
           id="g356"><path
             id="path358"
             style="fill:#ec1c25;fill-opacity:1;fill-rule:nonzero;stroke:none"
             d="m 0,0 -22.247,-7 -6.404,20.354 68.963,21.7 L 46.717,14.699 24.471,7.7 43.056,-51.364 18.585,-59.064 0,0 Z" /></g><g
           transform="translate(170.9095,239.9087)"
           id="g360"><path
             id="path362"
             style="fill:#ec1c25;fill-opacity:1;fill-rule:nonzero;stroke:none"
             d="m 0,0 24.471,7.7 24.99,-79.419 -24.472,-7.7 L 0,0 Z" /></g><g
           transform="translate(212.1752,252.8931)"
           id="g364"><path
             id="path366"
             style="fill:#ec1c25;fill-opacity:1;fill-rule:nonzero;stroke:none"
             d="m 0,0 24.471,7.7 18.584,-59.063 35.15,11.059 6.404,-20.355 -59.62,-18.76 L 0,0 Z" /></g><g
           transform="translate(292.4359,255.7778)"
           id="g368"><path
             id="path370"
             style="fill:#ec1c25;fill-opacity:1;fill-rule:nonzero;stroke:none"
             d="M 0,0 -22.247,-7 -28.651,13.355 40.312,35.054 46.717,14.7 24.471,7.7 43.056,-51.365 18.585,-59.064 0,0 Z" /></g></g></g></g></svg>