<?xml version="1.0" encoding="UTF-8" standalone="no"?>
<!-- Created with Inkscape (http://www.inkscape.org/) -->

<svg
   xmlns:dc="http://purl.org/dc/elements/1.1/"
   xmlns:cc="http://creativecommons.org/ns#"
   xmlns:rdf="http://www.w3.org/1999/02/22-rdf-syntax-ns#"
   xmlns:svg="http://www.w3.org/2000/svg"
   xmlns="http://www.w3.org/2000/svg"
   xmlns:sodipodi="http://sodipodi.sourceforge.net/DTD/sodipodi-0.dtd"
   xmlns:inkscape="http://www.inkscape.org/namespaces/inkscape"
   id="svg2"
   version="1.1"
   inkscape:version="0.48.5 r10040"
   width="896.10962"
   height="288.96222"
   xml:space="preserve"
   sodipodi:docname="brewometerlogo (1).ai"><metadata
     id="metadata8"><rdf:RDF><cc:Work
         rdf:about=""><dc:format>image/svg+xml</dc:format><dc:type
           rdf:resource="http://purl.org/dc/dcmitype/StillImage" /><dc:title></dc:title></cc:Work></rdf:RDF></metadata><defs
     id="defs6"><clipPath
       clipPathUnits="userSpaceOnUse"
       id="clipPath16"><path
         d="M 0,360 720,360 720,0 0,0 0,360 z"
         id="path18"
         inkscape:connector-curvature="0" /></clipPath></defs><sodipodi:namedview
     pagecolor="#ffffff"
     bordercolor="#666666"
     borderopacity="1"
     objecttolerance="10"
     gridtolerance="10"
     guidetolerance="10"
     inkscape:pageopacity="0"
     inkscape:pageshadow="2"
     inkscape:window-width="1359"
     inkscape:window-height="735"
     id="namedview4"
     showgrid="false"
     fit-margin-top="0"
     fit-margin-left="0"
     fit-margin-right="0"
     fit-margin-bottom="0"
     inkscape:zoom="0.42777778"
     inkscape:cx="447.53862"
     inkscape:cy="153.45894"
     inkscape:window-x="0"
     inkscape:window-y="0"
     inkscape:window-maximized="0"
     inkscape:current-layer="g10" /><g
     id="g10"
     inkscape:groupmode="layer"
     inkscape:label="brewometerlogo (1)"
     transform="matrix(1.25,0,0,-1.25,-2.4613796,360.50327)"><g
       id="g20"
       transform="matrix(1.7719482,0,0,1.7719482,263.69789,228.83132)"><path
         d="m 0,0 -7.993,3.28 c 0,0 11.668,-1.612 7.626,9.901 L 5.003,6.426 0,0 z"
         style="fill:#373535;fill-opacity:1;fill-rule:nonzero;stroke:none"
         id="path22"
         inkscape:connector-curvature="0" /></g><g
       id="g24"
       transform="matrix(1.7719482,0,0,1.7719482,281.17425,248.73633)"><path
         d="m 0,0 -6.849,5.265 c 0,0 10.836,-4.622 9.96,7.547 L 6.516,4.885 0,0 z"
         style="fill:#373535;fill-opacity:1;fill-rule:nonzero;stroke:none"
         id="path26"
         inkscape:connector-curvature="0" /></g><g
       id="g28"
       transform="matrix(1.7719482,0,0,1.7719482,302.7231,263.08237)"><path
         d="m 0,0 -5.264,6.849 c 0,0 9.282,-7.255 11.566,4.732 L 7.554,3.043 0,0 z"
         style="fill:#373535;fill-opacity:1;fill-rule:nonzero;stroke:none"
         id="path30"
         inkscape:connector-curvature="0" /></g><g
       id="g32"
       transform="matrix(1.7719482,0,0,1.7719482,327.72511,271.49646)"><path
         d="m 0,0 -3.288,7.988 c 0,0 7.059,-9.428 12.403,1.542 L 8.087,0.959 0,0 z"
         style="fill:#373535;fill-opacity:1;fill-rule:nonzero;stroke:none"
         id="path34"
         inkscape:connector-curvature="0" /></g><g
       id="g36"
       transform="matrix(1.7719482,0,0,1.7719482,353.74281,273.22942)"><path
         d="m 0,0 -1.121,8.563 c 0,0 4.394,-10.925 12.381,-1.7 L 8.062,-1.154 0,0 z"
         style="fill:#373535;fill-opacity:1;fill-rule:nonzero;stroke:none"
         id="path38"
         inkscape:connector-curvature="0" /></g><g
       id="g40"
       transform="matrix(1.7719482,0,0,1.7719482,379.50002,268.15333)"><path
         d="m 0,0 1.132,8.563 c 0,0 1.415,-11.695 11.519,-4.851 L 7.488,-3.202 0,0 z"
         style="fill:#373535;fill-opacity:1;fill-rule:nonzero;stroke:none"
         id="path42"
         inkscape:connector-curvature="0" /></g><g
       id="g44"
       transform="matrix(1.7719482,0,0,1.7719482,403.07437,256.56815)"><path
         d="m 0,0 3.314,7.977 c 0,0 -1.663,-11.66 9.869,-7.669 L 6.403,-5.032 0,0 z"
         style="fill:#373535;fill-opacity:1;fill-rule:nonzero;stroke:none"
         id="path46"
         inkscape:connector-curvature="0" /></g><g
       id="g48"
       transform="matrix(1.7719482,0,0,1.7719482,423.23117,238.82971)"><path
         d="m 0,0 5.308,6.813 c 0,0 -4.694,-10.801 7.486,-10.006 L 4.841,-6.548 0,0 z"
         style="fill:#373535;fill-opacity:1;fill-rule:nonzero;stroke:none"
         id="path50"
         inkscape:connector-curvature="0" /></g><g
       id="g52"
       transform="matrix(1.7719482,0,0,1.7719482,437.48631,217.37851)"><path
         d="m 0,0 6.867,5.242 c 0,0 -7.284,-9.256 4.695,-11.58 L 3.02,-7.563 0,0 z"
         style="fill:#373535;fill-opacity:1;fill-rule:nonzero;stroke:none"
         id="path54"
         inkscape:connector-curvature="0" /></g><g
       id="g56"
       transform="matrix(1.7719482,0,0,1.7719482,445.88055,192.73124)"><path
         d="m 0,0 7.981,3.301 c 0,0 -9.415,-7.071 1.562,-12.399 L 0.974,-8.084 0,0 z"
         style="fill:#373535;fill-opacity:1;fill-rule:nonzero;stroke:none"
         id="path58"
         inkscape:connector-curvature="0" /></g><g
       id="g60"
       transform="matrix(1.7719482,0,0,1.7719482,447.6603,166.75431)"><path
         d="m 0,0 8.56,1.14 c 0,0 -10.916,-4.415 -1.675,-12.383 L -1.135,-8.062 0,0 z"
         style="fill:#373535;fill-opacity:1;fill-rule:nonzero;stroke:none"
         id="path62"
         inkscape:connector-curvature="0" /></g><g
       id="g64"
       transform="matrix(1.7719482,0,0,1.7719482,442.5998,140.88793)"><path
         d="m 0,0 8.565,-1.124 c 0,0 -11.69,-1.426 -4.836,-11.524 L -3.19,-7.491 0,0 z"
         style="fill:#373535;fill-opacity:1;fill-rule:nonzero;stroke:none"
         id="path66"
         inkscape:connector-curvature="0" /></g><g
       id="g68"
       transform="matrix(1.7719482,0,0,1.7719482,431.02756,117.27548)"><path
         d="m 0,0 7.979,-3.311 c 0,0 -11.66,1.659 -7.662,-9.869 L -5.028,-6.407 0,0 z"
         style="fill:#373535;fill-opacity:1;fill-rule:nonzero;stroke:none"
         id="path70"
         inkscape:connector-curvature="0" /></g><g
       id="g72"
       transform="matrix(1.7719482,0,0,1.7719482,413.56253,97.349757)"><path
         d="m 0,0 6.848,-5.264 c 0,0 -10.832,4.624 -9.961,-7.548 L -6.514,-4.882 0,0 z"
         style="fill:#373535;fill-opacity:1;fill-rule:nonzero;stroke:none"
         id="path74"
         inkscape:connector-curvature="0" /></g><g
       id="g76"
       transform="matrix(1.7719482,0,0,1.7719482,391.75835,82.754569)"><path
         d="m 0,0 5.265,-6.849 c 0,0 -9.279,7.253 -11.566,-4.733 L -7.552,-3.043 0,0 z"
         style="fill:#373535;fill-opacity:1;fill-rule:nonzero;stroke:none"
         id="path78"
         inkscape:connector-curvature="0" /></g><g
       id="g80"
       transform="matrix(1.7719482,0,0,1.7719482,367.06785,74.278101)"><path
         d="m 0,0 3.338,-7.967 c 0,0 -7.115,9.382 -12.39,-1.619 L -8.079,-1.014 0,0 z"
         style="fill:#373535;fill-opacity:1;fill-rule:nonzero;stroke:none"
         id="path82"
         inkscape:connector-curvature="0" /></g><g
       id="g84"
       transform="matrix(1.7719482,0,0,1.7719482,341.0312,72.395406)"><path
         d="m 0,0 1.193,-8.557 c 0,0 -4.483,10.891 -12.395,1.603 L -8.068,1.086 0,0 z"
         style="fill:#373535;fill-opacity:1;fill-rule:nonzero;stroke:none"
         id="path86"
         inkscape:connector-curvature="0" /></g><g
       id="g88"
       transform="matrix(1.7719482,0,0,1.7719482,314.91303,77.388578)"><path
         d="m 0,0 -1.077,-8.57 c 0,0 -1.492,11.68 -11.551,4.773 L -7.508,3.15 0,0 z"
         style="fill:#373535;fill-opacity:1;fill-rule:nonzero;stroke:none"
         id="path90"
         inkscape:connector-curvature="0" /></g><g
       id="g92"
       transform="matrix(1.7719482,0,0,1.7719482,291.14838,89.305993)"><path
         d="m 0,0 -3.257,-8 c 0,0 1.582,11.669 -9.922,7.599 L -6.439,4.985 0,0 z"
         style="fill:#373535;fill-opacity:1;fill-rule:nonzero;stroke:none"
         id="path94"
         inkscape:connector-curvature="0" /></g><g
       id="g96"
       transform="matrix(1.7719482,0,0,1.7719482,271.74253,106.21817)"><path
         d="m 0,0 -5.221,-6.882 c 0,0 4.55,10.86 -7.615,9.91 L -4.927,6.484 0,0 z"
         style="fill:#373535;fill-opacity:1;fill-rule:nonzero;stroke:none"
         id="path98"
         inkscape:connector-curvature="0" /></g><g
       id="g100"
       transform="matrix(1.7719482,0,0,1.7719482,256.78233,128.15117)"><path
         d="m 0,0 -6.834,-5.282 c 0,0 7.227,9.298 -4.764,11.555 L -3.062,7.544 0,0 z"
         style="fill:#373535;fill-opacity:1;fill-rule:nonzero;stroke:none"
         id="path102"
         inkscape:connector-curvature="0" /></g><g
       id="g104"
       transform="matrix(1.7719482,0,0,1.7719482,248.84223,152.95597)"><path
         d="m 0,0 -7.966,-3.334 c 0,0 9.385,7.111 -1.616,12.393 L -1.008,8.08 0,0 z"
         style="fill:#373535;fill-opacity:1;fill-rule:nonzero;stroke:none"
         id="path106"
         inkscape:connector-curvature="0" /></g><g
       id="g108"
       transform="matrix(1.7719482,0,0,1.7719482,246.92056,179.59915)"><path
         d="m 0,0 -8.564,-1.124 c 0,0 10.925,4.396 1.699,12.381 L 1.15,8.061 0,0 z"
         style="fill:#373535;fill-opacity:1;fill-rule:nonzero;stroke:none"
         id="path110"
         inkscape:connector-curvature="0" /></g><g
       id="g112"
       transform="matrix(1.7719482,0,0,1.7719482,251.87828,205.39359)"><path
         d="m 0,0 -8.563,1.126 c 0,0 11.69,1.427 4.84,11.522 L 3.196,7.491 0,0 z"
         style="fill:#373535;fill-opacity:1;fill-rule:nonzero;stroke:none"
         id="path114"
         inkscape:connector-curvature="0" /></g><g
       id="g116"
       transform="matrix(1.7719482,0,0,1.7719482,443.06174,172.81862)"><path
         d="m 0,0 c 0,-29.851 -24.201,-54.051 -54.051,-54.051 -29.849,0 -54.049,24.2 -54.049,54.051 0,29.852 24.2,54.051 54.049,54.051 C -24.201,54.051 0,29.852 0,0"
         style="fill:#373535;fill-opacity:1;fill-rule:nonzero;stroke:none"
         id="path118"
         inkscape:connector-curvature="0" /></g><g
       id="g120"
       transform="matrix(1.7719482,0,0,1.7719482,443.06174,172.81862)"><path
         d="m 0,0 c 0,-29.851 -24.201,-54.051 -54.051,-54.051 -29.849,0 -54.049,24.2 -54.049,54.051 0,29.852 24.2,54.051 54.049,54.051 C -24.201,54.051 0,29.852 0,0 z"
         style="fill:none;stroke:#373535;stroke-width:0.68199998;stroke-linecap:butt;stroke-linejoin:miter;stroke-miterlimit:10;stroke-opacity:1;stroke-dasharray:none"
         id="path122"
         inkscape:connector-curvature="0" /></g><g
       id="g124"
       transform="matrix(1.7719482,0,0,1.7719482,413.26999,172.23281)"><path
         d="m 0,0 c 0,-20.569 -16.672,-37.243 -37.24,-37.243 -20.569,0 -37.24,16.674 -37.24,37.243 0,20.566 16.671,37.24 37.24,37.24 C -16.672,37.24 0,20.566 0,0 z"
         style="fill:none;stroke:#ffffff;stroke-width:1.16400003;stroke-linecap:butt;stroke-linejoin:miter;stroke-miterlimit:10;stroke-opacity:1;stroke-dasharray:none"
         id="path126"
         inkscape:connector-curvature="0" /></g><g
       id="g128"
       transform="matrix(1.7719482,0,0,1.7719482,347.28228,238.22052)"><path
         d="M 0,0 0,10.474"
         style="fill:none;stroke:#ffffff;stroke-width:1.45500004;stroke-linecap:butt;stroke-linejoin:miter;stroke-miterlimit:10;stroke-opacity:1;stroke-dasharray:none"
         id="path130"
         inkscape:connector-curvature="0" /></g><g
       id="g132"
       transform="matrix(1.7719482,0,0,1.7719482,367.70025,234.98388)"><path
         d="M 0,0 3.24,9.959"
         style="fill:none;stroke:#ffffff;stroke-width:1.45500004;stroke-linecap:butt;stroke-linejoin:miter;stroke-miterlimit:10;stroke-opacity:1;stroke-dasharray:none"
         id="path134"
         inkscape:connector-curvature="0" /></g><g
       id="g136"
       transform="matrix(1.7719482,0,0,1.7719482,386.11452,225.58847)"><path
         d="M 0,0 6.163,8.467"
         style="fill:none;stroke:#ffffff;stroke-width:1.45500004;stroke-linecap:butt;stroke-linejoin:miter;stroke-miterlimit:10;stroke-opacity:1;stroke-dasharray:none"
         id="path138"
         inkscape:connector-curvature="0" /></g><g
       id="g140"
       transform="matrix(1.7719482,0,0,1.7719482,400.7159,210.95697)"><path
         d="M 0,0 8.483,6.146"
         style="fill:none;stroke:#ffffff;stroke-width:1.45500004;stroke-linecap:butt;stroke-linejoin:miter;stroke-miterlimit:10;stroke-opacity:1;stroke-dasharray:none"
         id="path142"
         inkscape:connector-curvature="0" /></g><g
       id="g144"
       transform="matrix(1.7719482,0,0,1.7719482,410.07479,192.52535)"><path
         d="M 0,0 9.969,3.223"
         style="fill:none;stroke:#ffffff;stroke-width:1.45500004;stroke-linecap:butt;stroke-linejoin:miter;stroke-miterlimit:10;stroke-opacity:1;stroke-dasharray:none"
         id="path146"
         inkscape:connector-curvature="0" /></g><g
       id="g148"
       transform="matrix(1.7719482,0,0,1.7719482,413.26999,172.10293)"><path
         d="M 0,0 10.479,-0.02"
         style="fill:none;stroke:#ffffff;stroke-width:1.45500004;stroke-linecap:butt;stroke-linejoin:miter;stroke-miterlimit:10;stroke-opacity:1;stroke-dasharray:none"
         id="path150"
         inkscape:connector-curvature="0" /></g><g
       id="g152"
       transform="matrix(1.7719482,0,0,1.7719482,409.9986,151.69274)"><path
         d="M 0,0 9.954,-3.259"
         style="fill:none;stroke:#ffffff;stroke-width:1.45500004;stroke-linecap:butt;stroke-linejoin:miter;stroke-miterlimit:10;stroke-opacity:1;stroke-dasharray:none"
         id="path154"
         inkscape:connector-curvature="0" /></g><g
       id="g156"
       transform="matrix(1.7719482,0,0,1.7719482,400.56529,133.29833)"><path
         d="M 0,0 8.46,-6.179"
         style="fill:none;stroke:#ffffff;stroke-width:1.45500004;stroke-linecap:butt;stroke-linejoin:miter;stroke-miterlimit:10;stroke-opacity:1;stroke-dasharray:none"
         id="path158"
         inkscape:connector-curvature="0" /></g><g
       id="g160"
       transform="matrix(1.7719482,0,0,1.7719482,385.90684,118.72388)"><path
         d="M 0,0 6.131,-8.493"
         style="fill:none;stroke:#ffffff;stroke-width:1.45500004;stroke-linecap:butt;stroke-linejoin:miter;stroke-miterlimit:10;stroke-opacity:1;stroke-dasharray:none"
         id="path162"
         inkscape:connector-curvature="0" /></g><g
       id="g164"
       transform="matrix(1.7719482,0,0,1.7719482,367.46158,109.40218)"><path
         d="M 0,0 3.201,-9.976"
         style="fill:none;stroke:#ffffff;stroke-width:1.45500004;stroke-linecap:butt;stroke-linejoin:miter;stroke-miterlimit:10;stroke-opacity:1;stroke-dasharray:none"
         id="path166"
         inkscape:connector-curvature="0" /></g><g
       id="g168"
       transform="matrix(1.7719482,0,0,1.7719482,347.03049,106.2398)"><path
         d="M 0,0 -0.039,-10.475"
         style="fill:none;stroke:#ffffff;stroke-width:1.45500004;stroke-linecap:butt;stroke-linejoin:miter;stroke-miterlimit:10;stroke-opacity:1;stroke-dasharray:none"
         id="path170"
         inkscape:connector-curvature="0" /></g><g
       id="g172"
       transform="matrix(1.7719482,0,0,1.7719482,326.62704,109.55972)"><path
         d="M 0,0 -3.279,-9.95"
         style="fill:none;stroke:#ffffff;stroke-width:1.45500004;stroke-linecap:butt;stroke-linejoin:miter;stroke-miterlimit:10;stroke-opacity:1;stroke-dasharray:none"
         id="path174"
         inkscape:connector-curvature="0" /></g><g
       id="g176"
       transform="matrix(1.7719482,0,0,1.7719482,308.24927,119.02333)"><path
         d="M 0,0 -6.193,-8.444"
         style="fill:none;stroke:#ffffff;stroke-width:1.45500004;stroke-linecap:butt;stroke-linejoin:miter;stroke-miterlimit:10;stroke-opacity:1;stroke-dasharray:none"
         id="path178"
         inkscape:connector-curvature="0" /></g><g
       id="g180"
       transform="matrix(1.7719482,0,0,1.7719482,293.70335,133.71278)"><path
         d="M 0,0 -8.502,-6.116"
         style="fill:none;stroke:#ffffff;stroke-width:1.45500004;stroke-linecap:butt;stroke-linejoin:miter;stroke-miterlimit:10;stroke-opacity:1;stroke-dasharray:none"
         id="path182"
         inkscape:connector-curvature="0" /></g><g
       id="g184"
       transform="matrix(1.7719482,0,0,1.7719482,284.41621,152.17808)"><path
         d="M 0,0 -9.976,-3.182"
         style="fill:none;stroke:#ffffff;stroke-width:1.45500004;stroke-linecap:butt;stroke-linejoin:miter;stroke-miterlimit:10;stroke-opacity:1;stroke-dasharray:none"
         id="path186"
         inkscape:connector-curvature="0" /></g><g
       id="g188"
       transform="matrix(1.7719482,0,0,1.7719482,281.29618,172.61343)"><path
         d="M 0,0 -10.472,0.061"
         style="fill:none;stroke:#ffffff;stroke-width:1.45500004;stroke-linecap:butt;stroke-linejoin:miter;stroke-miterlimit:10;stroke-opacity:1;stroke-dasharray:none"
         id="path190"
         inkscape:connector-curvature="0" /></g><g
       id="g192"
       transform="matrix(1.7719482,0,0,1.7719482,284.65489,193.01245)"><path
         d="M 0,0 -9.943,3.297"
         style="fill:none;stroke:#ffffff;stroke-width:1.45500004;stroke-linecap:butt;stroke-linejoin:miter;stroke-miterlimit:10;stroke-opacity:1;stroke-dasharray:none"
         id="path194"
         inkscape:connector-curvature="0" /></g><g
       id="g196"
       transform="matrix(1.7719482,0,0,1.7719482,294.15502,211.36789)"><path
         d="M 0,0 -8.432,6.212"
         style="fill:none;stroke:#ffffff;stroke-width:1.45500004;stroke-linecap:butt;stroke-linejoin:miter;stroke-miterlimit:10;stroke-opacity:1;stroke-dasharray:none"
         id="path198"
         inkscape:connector-curvature="0" /></g><g
       id="g200"
       transform="matrix(1.7719482,0,0,1.7719482,308.87388,225.88706)"><path
         d="M 0,0 -6.1,8.516"
         style="fill:none;stroke:#ffffff;stroke-width:1.45500004;stroke-linecap:butt;stroke-linejoin:miter;stroke-miterlimit:10;stroke-opacity:1;stroke-dasharray:none"
         id="path202"
         inkscape:connector-curvature="0" /></g><g
       id="g204"
       transform="matrix(1.7719482,0,0,1.7719482,327.35654,235.14034)"><path
         d="M 0,0 -3.16,9.983"
         style="fill:none;stroke:#ffffff;stroke-width:1.45500004;stroke-linecap:butt;stroke-linejoin:miter;stroke-miterlimit:10;stroke-opacity:1;stroke-dasharray:none"
         id="path206"
         inkscape:connector-curvature="0" /></g><g
       id="g208"
       transform="matrix(1.7719482,0,0,1.7719482,357.60937,237.40985)"><path
         d="M 0,0 1.094,6.896"
         style="fill:none;stroke:#ffffff;stroke-width:1.16400003;stroke-linecap:butt;stroke-linejoin:miter;stroke-miterlimit:10;stroke-opacity:1;stroke-dasharray:none"
         id="path210"
         inkscape:connector-curvature="0" /></g><g
       id="g212"
       transform="matrix(1.7719482,0,0,1.7719482,377.2686,231.01506)"><path
         d="M 0,0 3.172,6.222"
         style="fill:none;stroke:#ffffff;stroke-width:1.16400003;stroke-linecap:butt;stroke-linejoin:miter;stroke-miterlimit:10;stroke-opacity:1;stroke-dasharray:none"
         id="path214"
         inkscape:connector-curvature="0" /></g><g
       id="g216"
       transform="matrix(1.7719482,0,0,1.7719482,393.98445,218.85454)"><path
         d="M 0,0 4.939,4.934"
         style="fill:none;stroke:#ffffff;stroke-width:1.16400003;stroke-linecap:butt;stroke-linejoin:miter;stroke-miterlimit:10;stroke-opacity:1;stroke-dasharray:none"
         id="path218"
         inkscape:connector-curvature="0" /></g><g
       id="g220"
       transform="matrix(1.7719482,0,0,1.7719482,406.11821,202.12061)"><path
         d="M 0,0 6.225,3.164"
         style="fill:none;stroke:#ffffff;stroke-width:1.16400003;stroke-linecap:butt;stroke-linejoin:miter;stroke-miterlimit:10;stroke-opacity:1;stroke-dasharray:none"
         id="path222"
         inkscape:connector-curvature="0" /></g><g
       id="g224"
       transform="matrix(1.7719482,0,0,1.7719482,412.47667,182.44916)"><path
         d="M 0,0 6.898,1.083"
         style="fill:none;stroke:#ffffff;stroke-width:1.16400003;stroke-linecap:butt;stroke-linejoin:miter;stroke-miterlimit:10;stroke-opacity:1;stroke-dasharray:none"
         id="path226"
         inkscape:connector-curvature="0" /></g><g
       id="g228"
       transform="matrix(1.7719482,0,0,1.7719482,412.4377,161.77672)"><path
         d="M 0,0 6.898,-1.103"
         style="fill:none;stroke:#ffffff;stroke-width:1.16400003;stroke-linecap:butt;stroke-linejoin:miter;stroke-miterlimit:10;stroke-opacity:1;stroke-dasharray:none"
         id="path230"
         inkscape:connector-curvature="0" /></g><g
       id="g232"
       transform="matrix(1.7719482,0,0,1.7719482,406.01262,142.1322)"><path
         d="M 0,0 6.213,-3.185"
         style="fill:none;stroke:#ffffff;stroke-width:1.16400003;stroke-linecap:butt;stroke-linejoin:miter;stroke-miterlimit:10;stroke-opacity:1;stroke-dasharray:none"
         id="path234"
         inkscape:connector-curvature="0" /></g><g
       id="g236"
       transform="matrix(1.7719482,0,0,1.7719482,393.81576,125.44133)"><path
         d="M 0,0 4.925,-4.951"
         style="fill:none;stroke:#ffffff;stroke-width:1.16400003;stroke-linecap:butt;stroke-linejoin:miter;stroke-miterlimit:10;stroke-opacity:1;stroke-dasharray:none"
         id="path238"
         inkscape:connector-curvature="0" /></g><g
       id="g240"
       transform="matrix(1.7719482,0,0,1.7719482,377.05845,113.34407)"><path
         d="M 0,0 3.15,-6.233"
         style="fill:none;stroke:#ffffff;stroke-width:1.16400003;stroke-linecap:butt;stroke-linejoin:miter;stroke-miterlimit:10;stroke-opacity:1;stroke-dasharray:none"
         id="path242"
         inkscape:connector-curvature="0" /></g><g
       id="g244"
       transform="matrix(1.7719482,0,0,1.7719482,357.37494,107.02034)"><path
         d="M 0,0 1.068,-6.901"
         style="fill:none;stroke:#ffffff;stroke-width:1.16400003;stroke-linecap:butt;stroke-linejoin:miter;stroke-miterlimit:10;stroke-opacity:1;stroke-dasharray:none"
         id="path246"
         inkscape:connector-curvature="0" /></g><g
       id="g248"
       transform="matrix(1.7719482,0,0,1.7719482,336.70499,107.09635)"><path
         d="M 0,0 -1.12,-6.893"
         style="fill:none;stroke:#ffffff;stroke-width:1.16400003;stroke-linecap:butt;stroke-linejoin:miter;stroke-miterlimit:10;stroke-opacity:1;stroke-dasharray:none"
         id="path250"
         inkscape:connector-curvature="0" /></g><g
       id="g252"
       transform="matrix(1.7719482,0,0,1.7719482,317.0734,113.56467)"><path
         d="M 0,0 -3.199,-6.208"
         style="fill:none;stroke:#ffffff;stroke-width:1.16400003;stroke-linecap:butt;stroke-linejoin:miter;stroke-miterlimit:10;stroke-opacity:1;stroke-dasharray:none"
         id="path254"
         inkscape:connector-curvature="0" /></g><g
       id="g256"
       transform="matrix(1.7719482,0,0,1.7719482,300.40432,125.7927)"><path
         d="M 0,0 -4.959,-4.915"
         style="fill:none;stroke:#ffffff;stroke-width:1.16400003;stroke-linecap:butt;stroke-linejoin:miter;stroke-miterlimit:10;stroke-opacity:1;stroke-dasharray:none"
         id="path258"
         inkscape:connector-curvature="0" /></g><g
       id="g260"
       transform="matrix(1.7719482,0,0,1.7719482,288.33647,142.57767)"><path
         d="M 0,0 -6.238,-3.141"
         style="fill:none;stroke:#ffffff;stroke-width:1.16400003;stroke-linecap:butt;stroke-linejoin:miter;stroke-miterlimit:10;stroke-opacity:1;stroke-dasharray:none"
         id="path262"
         inkscape:connector-curvature="0" /></g><g
       id="g264"
       transform="matrix(1.7719482,0,0,1.7719482,282.05333,162.26986)"><path
         d="M 0,0 -6.904,-1.057"
         style="fill:none;stroke:#ffffff;stroke-width:1.16400003;stroke-linecap:butt;stroke-linejoin:miter;stroke-miterlimit:10;stroke-opacity:1;stroke-dasharray:none"
         id="path266"
         inkscape:connector-curvature="0" /></g><g
       id="g268"
       transform="matrix(1.7719482,0,0,1.7719482,282.17275,182.93981)"><path
         d="M 0,0 -6.892,1.129"
         style="fill:none;stroke:#ffffff;stroke-width:1.16400003;stroke-linecap:butt;stroke-linejoin:miter;stroke-miterlimit:10;stroke-opacity:1;stroke-dasharray:none"
         id="path270"
         inkscape:connector-curvature="0" /></g><g
       id="g272"
       transform="matrix(1.7719482,0,0,1.7719482,288.67988,202.56094)"><path
         d="M 0,0 -6.206,3.205"
         style="fill:none;stroke:#ffffff;stroke-width:1.16400003;stroke-linecap:butt;stroke-linejoin:miter;stroke-miterlimit:10;stroke-opacity:1;stroke-dasharray:none"
         id="path274"
         inkscape:connector-curvature="0" /></g><g
       id="g276"
       transform="matrix(1.7719482,0,0,1.7719482,300.93645,219.20327)"><path
         d="M 0,0 -4.904,4.968"
         style="fill:none;stroke:#ffffff;stroke-width:1.16400003;stroke-linecap:butt;stroke-linejoin:miter;stroke-miterlimit:10;stroke-opacity:1;stroke-dasharray:none"
         id="path278"
         inkscape:connector-curvature="0" /></g><g
       id="g280"
       transform="matrix(1.7719482,0,0,1.7719482,317.74408,231.23745)"><path
         d="M 0,0 -3.128,6.244"
         style="fill:none;stroke:#ffffff;stroke-width:1.16400003;stroke-linecap:butt;stroke-linejoin:miter;stroke-miterlimit:10;stroke-opacity:1;stroke-dasharray:none"
         id="path282"
         inkscape:connector-curvature="0" /></g><g
       id="g284"
       transform="matrix(1.7719482,0,0,1.7719482,337.44743,237.48338)"><path
         d="M 0,0 -1.044,6.902"
         style="fill:none;stroke:#ffffff;stroke-width:1.16400003;stroke-linecap:butt;stroke-linejoin:miter;stroke-miterlimit:10;stroke-opacity:1;stroke-dasharray:none"
         id="path286"
         inkscape:connector-curvature="0" /></g><g
       id="g288"
       transform="matrix(1.7719482,0,0,1.7719482,352.63534,238.00256)"><path
         d="M 0,0 0.262,3.243"
         style="fill:none;stroke:#ffffff;stroke-width:0.87300003;stroke-linecap:butt;stroke-linejoin:miter;stroke-miterlimit:4;stroke-opacity:1;stroke-dasharray:none"
         id="path290"
         inkscape:connector-curvature="0" /></g><g
       id="g292"
       transform="matrix(1.7719482,0,0,1.7719482,362.85771,236.3543)"><path
         d="M 0,0 0.769,3.162"
         style="fill:none;stroke:#ffffff;stroke-width:0.87300003;stroke-linecap:butt;stroke-linejoin:miter;stroke-miterlimit:4;stroke-opacity:1;stroke-dasharray:none"
         id="path294"
         inkscape:connector-curvature="0" /></g><g
       id="g296"
       transform="matrix(1.7719482,0,0,1.7719482,372.70388,233.12616)"><path
         d="M 0,0 1.252,3.004"
         style="fill:none;stroke:#ffffff;stroke-width:0.87300003;stroke-linecap:butt;stroke-linejoin:miter;stroke-miterlimit:4;stroke-opacity:1;stroke-dasharray:none"
         id="path298"
         inkscape:connector-curvature="0" /></g><g
       id="g300"
       transform="matrix(1.7719482,0,0,1.7719482,381.91837,228.39701)"><path
         d="M 0,0 1.706,2.771"
         style="fill:none;stroke:#ffffff;stroke-width:0.87300003;stroke-linecap:butt;stroke-linejoin:miter;stroke-miterlimit:4;stroke-opacity:1;stroke-dasharray:none"
         id="path302"
         inkscape:connector-curvature="0" /></g><g
       id="g304"
       transform="matrix(1.7719482,0,0,1.7719482,390.28143,222.28592)"><path
         d="M 0,0 2.119,2.471"
         style="fill:none;stroke:#ffffff;stroke-width:0.87300003;stroke-linecap:butt;stroke-linejoin:miter;stroke-miterlimit:4;stroke-opacity:1;stroke-dasharray:none"
         id="path306"
         inkscape:connector-curvature="0" /></g><g
       id="g308"
       transform="matrix(1.7719482,0,0,1.7719482,397.58469,214.94296)"><path
         d="M 0,0 2.481,2.105"
         style="fill:none;stroke:#ffffff;stroke-width:0.87300003;stroke-linecap:butt;stroke-linejoin:miter;stroke-miterlimit:4;stroke-opacity:1;stroke-dasharray:none"
         id="path310"
         inkscape:connector-curvature="0" /></g><g
       id="g312"
       transform="matrix(1.7719482,0,0,1.7719482,403.64795,206.54695)"><path
         d="M 0,0 2.781,1.689"
         style="fill:none;stroke:#ffffff;stroke-width:0.87300003;stroke-linecap:butt;stroke-linejoin:miter;stroke-miterlimit:4;stroke-opacity:1;stroke-dasharray:none"
         id="path314"
         inkscape:connector-curvature="0" /></g><g
       id="g316"
       transform="matrix(1.7719482,0,0,1.7719482,408.32181,197.30216)"><path
         d="M 0,0 3.01,1.236"
         style="fill:none;stroke:#ffffff;stroke-width:0.87300003;stroke-linecap:butt;stroke-linejoin:miter;stroke-miterlimit:4;stroke-opacity:1;stroke-dasharray:none"
         id="path318"
         inkscape:connector-curvature="0" /></g><g
       id="g320"
       transform="matrix(1.7719482,0,0,1.7719482,411.49554,187.44056)"><path
         d="M 0,0 3.166,0.751"
         style="fill:none;stroke:#ffffff;stroke-width:0.87300003;stroke-linecap:butt;stroke-linejoin:miter;stroke-miterlimit:4;stroke-opacity:1;stroke-dasharray:none"
         id="path322"
         inkscape:connector-curvature="0" /></g><g
       id="g324"
       transform="matrix(1.7719482,0,0,1.7719482,413.07702,177.20862)"><path
         d="M 0,0 3.248,0.247"
         style="fill:none;stroke:#ffffff;stroke-width:0.87300003;stroke-linecap:butt;stroke-linejoin:miter;stroke-miterlimit:4;stroke-opacity:1;stroke-dasharray:none"
         id="path326"
         inkscape:connector-curvature="0" /></g><g
       id="g328"
       transform="matrix(1.7719482,0,0,1.7719482,413.0476,166.84946)"><path
         d="M 0,0 3.244,-0.265"
         style="fill:none;stroke:#ffffff;stroke-width:0.87300003;stroke-linecap:butt;stroke-linejoin:miter;stroke-miterlimit:4;stroke-opacity:1;stroke-dasharray:none"
         id="path330"
         inkscape:connector-curvature="0" /></g><g
       id="g332"
       transform="matrix(1.7719482,0,0,1.7719482,411.39083,156.62267)"><path
         d="M 0,0 3.164,-0.769"
         style="fill:none;stroke:#ffffff;stroke-width:0.87300003;stroke-linecap:butt;stroke-linejoin:miter;stroke-miterlimit:4;stroke-opacity:1;stroke-dasharray:none"
         id="path334"
         inkscape:connector-curvature="0" /></g><g
       id="g336"
       transform="matrix(1.7719482,0,0,1.7719482,408.16606,146.78693)"><path
         d="M 0,0 3.001,-1.256"
         style="fill:none;stroke:#ffffff;stroke-width:0.87300003;stroke-linecap:butt;stroke-linejoin:miter;stroke-miterlimit:4;stroke-opacity:1;stroke-dasharray:none"
         id="path338"
         inkscape:connector-curvature="0" /></g><g
       id="g340"
       transform="matrix(1.7719482,0,0,1.7719482,403.43088,137.57244)"><path
         d="M 0,0 2.771,-1.711"
         style="fill:none;stroke:#ffffff;stroke-width:0.87300003;stroke-linecap:butt;stroke-linejoin:miter;stroke-miterlimit:4;stroke-opacity:1;stroke-dasharray:none"
         id="path342"
         inkscape:connector-curvature="0" /></g><g
       id="g344"
       transform="matrix(1.7719482,0,0,1.7719482,397.31376,129.21292)"><path
         d="M 0,0 2.468,-2.124"
         style="fill:none;stroke:#ffffff;stroke-width:0.87300003;stroke-linecap:butt;stroke-linejoin:miter;stroke-miterlimit:4;stroke-opacity:1;stroke-dasharray:none"
         id="path346"
         inkscape:connector-curvature="0" /></g><g
       id="g348"
       transform="matrix(1.7719482,0,0,1.7719482,389.96656,121.91392)"><path
         d="M 0,0 2.105,-2.483"
         style="fill:none;stroke:#ffffff;stroke-width:0.87300003;stroke-linecap:butt;stroke-linejoin:miter;stroke-miterlimit:4;stroke-opacity:1;stroke-dasharray:none"
         id="path350"
         inkscape:connector-curvature="0" /></g><g
       id="g352"
       transform="matrix(1.7719482,0,0,1.7719482,381.56451,115.8558)"><path
         d="M 0,0 1.692,-2.781"
         style="fill:none;stroke:#ffffff;stroke-width:0.87300003;stroke-linecap:butt;stroke-linejoin:miter;stroke-miterlimit:4;stroke-opacity:1;stroke-dasharray:none"
         id="path354"
         inkscape:connector-curvature="0" /></g><g
       id="g356"
       transform="matrix(1.7719482,0,0,1.7719482,372.31884,111.18795)"><path
         d="M 0,0 1.235,-3.014"
         style="fill:none;stroke:#ffffff;stroke-width:0.87300003;stroke-linecap:butt;stroke-linejoin:miter;stroke-miterlimit:4;stroke-opacity:1;stroke-dasharray:none"
         id="path358"
         inkscape:connector-curvature="0" /></g><g
       id="g360"
       transform="matrix(1.7719482,0,0,1.7719482,362.45706,108.0222)"><path
         d="M 0,0 0.748,-3.168"
         style="fill:none;stroke:#ffffff;stroke-width:0.87300003;stroke-linecap:butt;stroke-linejoin:miter;stroke-miterlimit:4;stroke-opacity:1;stroke-dasharray:none"
         id="path362"
         inkscape:connector-curvature="0" /></g><g
       id="g364"
       transform="matrix(1.7719482,0,0,1.7719482,352.21999,106.43967)"><path
         d="M 0,0 0.245,-3.247"
         style="fill:none;stroke:#ffffff;stroke-width:0.87300003;stroke-linecap:butt;stroke-linejoin:miter;stroke-miterlimit:4;stroke-opacity:1;stroke-dasharray:none"
         id="path366"
         inkscape:connector-curvature="0" /></g><g
       id="g368"
       transform="matrix(1.7719482,0,0,1.7719482,341.86526,106.47953)"><path
         d="M 0,0 -0.27,-3.247"
         style="fill:none;stroke:#ffffff;stroke-width:0.87300003;stroke-linecap:butt;stroke-linejoin:miter;stroke-miterlimit:4;stroke-opacity:1;stroke-dasharray:none"
         id="path370"
         inkscape:connector-curvature="0" /></g><g
       id="g372"
       transform="matrix(1.7719482,0,0,1.7719482,331.64271,108.1363)"><path
         d="M 0,0 -0.774,-3.163"
         style="fill:none;stroke:#ffffff;stroke-width:0.87300003;stroke-linecap:butt;stroke-linejoin:miter;stroke-miterlimit:4;stroke-opacity:1;stroke-dasharray:none"
         id="path374"
         inkscape:connector-curvature="0" /></g><g
       id="g376"
       transform="matrix(1.7719482,0,0,1.7719482,321.80095,111.37401)"><path
         d="M 0,0 -1.256,-3.003"
         style="fill:none;stroke:#ffffff;stroke-width:0.87300003;stroke-linecap:butt;stroke-linejoin:miter;stroke-miterlimit:4;stroke-opacity:1;stroke-dasharray:none"
         id="path378"
         inkscape:connector-curvature="0" /></g><g
       id="g380"
       transform="matrix(1.7719482,0,0,1.7719482,312.59427,116.11627)"><path
         d="M 0,0 -1.715,-2.772"
         style="fill:none;stroke:#ffffff;stroke-width:0.87300003;stroke-linecap:butt;stroke-linejoin:miter;stroke-miterlimit:4;stroke-opacity:1;stroke-dasharray:none"
         id="path382"
         inkscape:connector-curvature="0" /></g><g
       id="g384"
       transform="matrix(1.7719482,0,0,1.7719482,304.23634,122.23322)"><path
         d="M 0,0 -2.127,-2.466"
         style="fill:none;stroke:#ffffff;stroke-width:0.87300003;stroke-linecap:butt;stroke-linejoin:miter;stroke-miterlimit:4;stroke-opacity:1;stroke-dasharray:none"
         id="path386"
         inkscape:connector-curvature="0" /></g><g
       id="g388"
       transform="matrix(1.7719482,0,0,1.7719482,296.94531,129.58486)"><path
         d="M 0,0 -2.486,-2.104"
         style="fill:none;stroke:#ffffff;stroke-width:0.87300003;stroke-linecap:butt;stroke-linejoin:miter;stroke-miterlimit:4;stroke-opacity:1;stroke-dasharray:none"
         id="path390"
         inkscape:connector-curvature="0" /></g><g
       id="g392"
       transform="matrix(1.7719482,0,0,1.7719482,290.89145,137.98779)"><path
         d="M 0,0 -2.785,-1.689"
         style="fill:none;stroke:#ffffff;stroke-width:0.87300003;stroke-linecap:butt;stroke-linejoin:miter;stroke-miterlimit:4;stroke-opacity:1;stroke-dasharray:none"
         id="path394"
         inkscape:connector-curvature="0" /></g><g
       id="g396"
       transform="matrix(1.7719482,0,0,1.7719482,286.22271,147.23523)"><path
         d="M 0,0 -3.012,-1.231"
         style="fill:none;stroke:#ffffff;stroke-width:0.87300003;stroke-linecap:butt;stroke-linejoin:miter;stroke-miterlimit:4;stroke-opacity:1;stroke-dasharray:none"
         id="path398"
         inkscape:connector-curvature="0" /></g><g
       id="g400"
       transform="matrix(1.7719482,0,0,1.7719482,283.06634,157.10285)"><path
         d="M 0,0 -3.17,-0.748"
         style="fill:none;stroke:#ffffff;stroke-width:0.87300003;stroke-linecap:butt;stroke-linejoin:miter;stroke-miterlimit:4;stroke-opacity:1;stroke-dasharray:none"
         id="path402"
         inkscape:connector-curvature="0" /></g><g
       id="g404"
       transform="matrix(1.7719482,0,0,1.7719482,281.48648,167.33746)"><path
         d="M 0,0 -3.245,-0.242"
         style="fill:none;stroke:#ffffff;stroke-width:0.87300003;stroke-linecap:butt;stroke-linejoin:miter;stroke-miterlimit:4;stroke-opacity:1;stroke-dasharray:none"
         id="path406"
         inkscape:connector-curvature="0" /></g><g
       id="g408"
       transform="matrix(1.7719482,0,0,1.7719482,281.53077,177.69662)"><path
         d="M 0,0 -3.244,0.27"
         style="fill:none;stroke:#ffffff;stroke-width:0.87300003;stroke-linecap:butt;stroke-linejoin:miter;stroke-miterlimit:4;stroke-opacity:1;stroke-dasharray:none"
         id="path410"
         inkscape:connector-curvature="0" /></g><g
       id="g412"
       transform="matrix(1.7719482,0,0,1.7719482,283.19534,187.91722)"><path
         d="M 0,0 -3.16,0.775"
         style="fill:none;stroke:#ffffff;stroke-width:0.87300003;stroke-linecap:butt;stroke-linejoin:miter;stroke-miterlimit:4;stroke-opacity:1;stroke-dasharray:none"
         id="path414"
         inkscape:connector-curvature="0" /></g><g
       id="g416"
       transform="matrix(1.7719482,0,0,1.7719482,286.44155,197.75471)"><path
         d="M 0,0 -3.003,1.261"
         style="fill:none;stroke:#ffffff;stroke-width:0.87300003;stroke-linecap:butt;stroke-linejoin:miter;stroke-miterlimit:4;stroke-opacity:1;stroke-dasharray:none"
         id="path418"
         inkscape:connector-curvature="0" /></g><g
       id="g420"
       transform="matrix(1.7719482,0,0,1.7719482,291.18471,206.96318)"><path
         d="M 0,0 -2.77,1.714"
         style="fill:none;stroke:#ffffff;stroke-width:0.87300003;stroke-linecap:butt;stroke-linejoin:miter;stroke-miterlimit:4;stroke-opacity:1;stroke-dasharray:none"
         id="path422"
         inkscape:connector-curvature="0" /></g><g
       id="g424"
       transform="matrix(1.7719482,0,0,1.7719482,297.30856,215.31507)"><path
         d="M 0,0 -2.466,2.125"
         style="fill:none;stroke:#ffffff;stroke-width:0.87300003;stroke-linecap:butt;stroke-linejoin:miter;stroke-miterlimit:4;stroke-opacity:1;stroke-dasharray:none"
         id="path426"
         inkscape:connector-curvature="0" /></g><g
       id="g428"
       transform="matrix(1.7719482,0,0,1.7719482,304.67065,222.60523)"><path
         d="M 0,0 -2.106,2.485"
         style="fill:none;stroke:#ffffff;stroke-width:0.87300003;stroke-linecap:butt;stroke-linejoin:miter;stroke-miterlimit:4;stroke-opacity:1;stroke-dasharray:none"
         id="path430"
         inkscape:connector-curvature="0" /></g><g
       id="g432"
       transform="matrix(1.7719482,0,0,1.7719482,313.07712,228.65306)"><path
         d="M 0,0 -1.689,2.786"
         style="fill:none;stroke:#ffffff;stroke-width:0.87300003;stroke-linecap:butt;stroke-linejoin:miter;stroke-miterlimit:4;stroke-opacity:1;stroke-dasharray:none"
         id="path434"
         inkscape:connector-curvature="0" /></g><g
       id="g436"
       transform="matrix(1.7719482,0,0,1.7719482,322.3235,233.31311)"><path
         d="M 0,0 -1.231,3.013"
         style="fill:none;stroke:#ffffff;stroke-width:0.87300003;stroke-linecap:butt;stroke-linejoin:miter;stroke-miterlimit:4;stroke-opacity:1;stroke-dasharray:none"
         id="path438"
         inkscape:connector-curvature="0" /></g><g
       id="g440"
       transform="matrix(1.7719482,0,0,1.7719482,332.19219,236.4615)"><path
         d="M 0,0 -0.745,3.171"
         style="fill:none;stroke:#ffffff;stroke-width:0.87300003;stroke-linecap:butt;stroke-linejoin:miter;stroke-miterlimit:4;stroke-opacity:1;stroke-dasharray:none"
         id="path442"
         inkscape:connector-curvature="0" /></g><g
       id="g444"
       transform="matrix(1.7719482,0,0,1.7719482,342.4266,238.03712)"><path
         d="M 0,0 -0.24,3.249"
         style="fill:none;stroke:#ffffff;stroke-width:0.87300003;stroke-linecap:butt;stroke-linejoin:miter;stroke-miterlimit:4;stroke-opacity:1;stroke-dasharray:none"
         id="path446"
         inkscape:connector-curvature="0" /></g><g
       id="g448"
       transform="matrix(1.7719482,0,0,1.7719482,438.27199,172.8211)"><path
         d="m 0,0 c 0,-28.359 -22.988,-51.349 -51.346,-51.349 -28.361,0 -51.349,22.99 -51.349,51.349 0,28.357 22.988,51.346 51.349,51.346 C -22.988,51.346 0,28.357 0,0 z"
         style="fill:none;stroke:#ee3338;stroke-width:1.38100004;stroke-linecap:butt;stroke-linejoin:miter;stroke-miterlimit:4;stroke-opacity:1;stroke-dasharray:none"
         id="path450"
         inkscape:connector-curvature="0" /></g><path
       d="m 718.85679,125.09191 -716.8876863,0 0,95.508 716.8876863,0 0,-95.508 z"
       style="fill:#373535;fill-opacity:1;fill-rule:nonzero;stroke:none"
       id="path452"
       inkscape:connector-curvature="0" /><g
       id="g454"
       transform="matrix(1.7719482,0,0,1.7719482,400.82577,172.81862)"><path
         d="m 0,0 c 0,-16.686 -13.526,-30.213 -30.213,-30.213 -16.688,0 -30.215,13.527 -30.215,30.213 0,16.688 13.527,30.215 30.215,30.215 C -13.526,30.215 0,16.688 0,0 z"
         style="fill:none;stroke:#ffffff;stroke-width:2.40199995;stroke-linecap:butt;stroke-linejoin:miter;stroke-miterlimit:4;stroke-opacity:1;stroke-dasharray:none"
         id="path456"
         inkscape:connector-curvature="0" /></g><path
       d="m 711.60775,133.0444 -702.4888367,0 0,79.69869 702.4888367,0 0,-79.69869 z"
       style="fill:#373535;fill-opacity:1;fill-rule:nonzero;stroke:#ffffff;stroke-width:2.26100588;stroke-linecap:butt;stroke-linejoin:miter;stroke-miterlimit:4;stroke-opacity:1;stroke-dasharray:none"
       id="path458"
       inkscape:connector-curvature="0" /><g
       id="g460"
       transform="matrix(1.7719482,0,0,1.7719482,347.28653,123.69366)"><path
         d="m 0,0 c -15.286,0 -27.723,12.437 -27.723,27.724 0,15.287 12.437,27.723 27.723,27.723 15.288,0 27.726,-12.436 27.726,-27.723 C 27.726,12.437 15.288,0 0,0"
         style="fill:#ee3338;fill-opacity:1;fill-rule:nonzero;stroke:none"
         id="path462"
         inkscape:connector-curvature="0" /></g><g
       id="g464"
       transform="matrix(1.7719482,0,0,1.7719482,347.28653,226.20015)"><path
         d="m 0,0 c -16.611,0 -30.125,-13.515 -30.125,-30.126 0,-16.611 13.514,-30.126 30.125,-30.126 16.613,0 30.128,13.515 30.128,30.126 C 30.128,-13.515 16.613,0 0,0 m 0,-4.805 c 13.986,0 25.323,-11.336 25.323,-25.321 0,-13.985 -11.337,-25.321 -25.323,-25.321 -13.983,0 -25.32,11.336 -25.32,25.321 0,13.985 11.337,25.321 25.32,25.321"
         style="fill:#373535;fill-opacity:1;fill-rule:nonzero;stroke:none"
         id="path466"
         inkscape:connector-curvature="0" /></g><g
       id="g468"
       transform="matrix(1.7719482,0,0,1.7719482,369.79931,172.81932)"><path
         d="m 0,0 c 0,-7.017 -5.688,-12.704 -12.705,-12.704 -7.016,0 -12.702,5.687 -12.702,12.704 0,7.016 5.686,12.703 12.702,12.703 C -5.688,12.703 0,7.016 0,0"
         style="fill:#373535;fill-opacity:1;fill-rule:nonzero;stroke:none"
         id="path470"
         inkscape:connector-curvature="0" /></g><g
       id="g472"
       transform="matrix(1.7719482,0,0,1.7719482,347.08152,201.23111)"><path
         d="m 0,0 4.779,-9.685 10.688,-1.552 -7.732,-7.537 1.824,-10.645 -9.559,5.025 -9.559,-5.025 1.826,10.645 -7.732,7.537 10.687,1.552 L 0,0 z"
         style="fill:#ffffff;fill-opacity:1;fill-rule:nonzero;stroke:none"
         id="path474"
         inkscape:connector-curvature="0" /></g><g
       id="g476"
       transform="matrix(1.7719482,0,0,1.7719482,347.08152,201.23111)"><path
         d="m 0,0 4.779,-9.685 10.688,-1.552 -7.732,-7.537 1.824,-10.645 -9.559,5.025 -9.559,-5.025 1.826,10.645 -7.732,7.537 10.687,1.552 L 0,0 z"
         style="fill:none;stroke:#373535;stroke-width:1.20099998;stroke-linecap:butt;stroke-linejoin:miter;stroke-miterlimit:4;stroke-opacity:1;stroke-dasharray:none"
         id="path478"
         inkscape:connector-curvature="0" /></g><g
       id="g480"
       transform="matrix(1.7719482,0,0,1.7719482,465.71025,199.63652)"><path
         d="m 0,0 30.87,0 0,-7.376 -19.4,0 0,-4.07 18.016,0 0,-7.376 -18.016,0 0,-4.071 19.4,0 0,-7.376 -30.87,0 L 0,0 z"
         style="fill:#ee3338;fill-opacity:1;fill-rule:nonzero;stroke:none"
         id="path482"
         inkscape:connector-curvature="0" /></g><g
       id="g484"
       transform="matrix(1.7719482,0,0,1.7719482,539.04552,186.11337)"><path
         d="m 0,0 -7.613,0.009 0,7.631 26.325,0 0,-7.631 L 11.47,0 l 0,-22.637 -11.47,0 L 0,0 z"
         style="fill:#ee3338;fill-opacity:1;fill-rule:nonzero;stroke:none"
         id="path486"
         inkscape:connector-curvature="0" /></g><g
       id="g488"
       transform="matrix(1.7719482,0,0,1.7719482,577.3561,199.63652)"><path
         d="m 0,0 30.871,0 0,-7.376 -19.402,0 0,-4.07 18.018,0 0,-7.376 -18.018,0 0,-4.071 19.402,0 0,-7.376 L 0,-30.269 0,0 z"
         style="fill:#ee3338;fill-opacity:1;fill-rule:nonzero;stroke:none"
         id="path490"
         inkscape:connector-curvature="0" /></g><g
       id="g492"
       transform="matrix(1.7719482,0,0,1.7719482,658.69702,176.07865)"><path
         d="m 0,0 8.133,0 c 2.279,0 3.174,0.931 3.174,2.838 0,2.332 -1.423,2.841 -3.335,2.841 L 0,5.679 0,0 z m -11.469,13.311 24.159,0 c 3.294,0 5.289,-0.298 6.874,-1.103 2.154,-1.145 3.944,-3.986 3.944,-7.333 0,-2.884 -1.098,-5.894 -4.473,-6.912 l 0,-0.085 c 1.75,-0.508 3.091,-1.991 3.294,-4.663 l 0.489,-6.612 c 0.122,-1.358 0.65,-2.587 1.423,-3.562 l -12.526,0 c -0.449,0.891 -0.408,2.204 -0.612,5.723 -0.121,2.248 -0.853,3.604 -2.97,3.604 l -8.133,0 0,-9.327 -11.469,0 0,30.27 z"
         style="fill:#ee3338;fill-opacity:1;fill-rule:nonzero;stroke:none"
         id="path494"
         inkscape:connector-curvature="0" /></g><g
       id="g496"
       transform="matrix(1.7719482,0,0,1.7719482,44.043835,157.48703)"><path
         d="m 0,0 10.11,0 c 3.203,0 3.206,1.579 3.206,2.935 0,1.314 -0.724,2.374 -3.109,2.374 l -10.266,0 L 0,0 z m -0.125,11.235 9.135,0.12 c 3.402,0.03 2.986,1.628 2.986,2.816 0,1.144 -0.459,2.245 -2.887,2.245 l -9.283,-0.202 0.049,-4.979 z m -11.69,12.219 27.346,0 c 6.261,0 8.988,-2.67 8.988,-7.545 0,-2.714 -1.278,-5.003 -3.621,-5.893 l 0,-0.085 c 3.92,-1.018 5.197,-4.664 5.197,-6.911 0,-5.935 -2.981,-9.835 -11.885,-9.835 l -26.025,0 0,30.269 z"
         style="fill:#ee3338;fill-opacity:1;fill-rule:nonzero;stroke:none"
         id="path498"
         inkscape:connector-curvature="0" /></g><g
       id="g500"
       transform="matrix(1.7719482,0,0,1.7719482,117.35216,175.45829)"><path
         d="m 0,0 8.52,0 c 2.384,0 3.322,0.934 3.322,2.841 0,2.332 -1.491,2.84 -3.493,2.84 L 0,5.681 0,0 z m -12.012,13.312 25.302,0 c 3.45,0 5.537,-0.295 7.199,-1.102 2.258,-1.145 4.132,-3.984 4.132,-7.335 0,-2.882 -1.151,-5.892 -4.686,-6.909 l 0,-0.085 c 1.832,-0.508 3.237,-1.994 3.451,-4.663 l 0.51,-6.614 c 0.128,-1.356 0.682,-2.587 1.491,-3.562 l -13.119,0 c -0.469,0.891 -0.426,2.206 -0.64,5.724 -0.127,2.246 -0.894,3.603 -3.108,3.603 l -8.52,0 0,-9.327 -12.012,0 0,30.27 z"
         style="fill:#ee3338;fill-opacity:1;fill-rule:nonzero;stroke:none"
         id="path502"
         inkscape:connector-curvature="0" /></g><g
       id="g504"
       transform="matrix(1.7719482,0,0,1.7719482,168.68053,199.04647)"><path
         d="m 0,0 32.332,0 0,-7.376 -20.32,0 0,-4.071 18.87,0 0,-7.376 -18.87,0 0,-4.071 20.32,0 0,-7.376 L 0,-30.27 0,0 z"
         style="fill:#ee3338;fill-opacity:1;fill-rule:nonzero;stroke:none"
         id="path506"
         inkscape:connector-curvature="0" /></g><g
       id="g508"
       transform="matrix(1.7719482,0,0,1.7719482,227.70856,199.04647)"><path
         d="m 0,0 11.628,0 3.919,-18.484 0.085,0 4.472,18.484 9.584,0 4.431,-18.484 0.085,0 L 38.122,0 49.751,0 40.85,-30.27 l -11.801,0 -4.131,16.789 -0.085,0 -4.174,-16.789 -11.8,0 L 0,0 z"
         style="fill:#ee3338;fill-opacity:1;fill-rule:nonzero;stroke:none"
         id="path510"
         inkscape:connector-curvature="0" /></g><g
       id="g512"
       transform="matrix(1.7719482,0,0,1.7719482,393.48352,199.37091)"><path
         d="m 0,0 11.418,0 4.04,-16.789 0.082,0 3.999,16.789 11.419,0 8.615,-30.27 -11.255,0 -3.791,18.484 -0.083,0 -4.286,-18.484 -9.275,0 -4.329,18.484 -0.082,0 -3.793,-18.484 -11.253,0 L 0,0 z"
         style="fill:#ee3338;fill-opacity:1;fill-rule:nonzero;stroke:none"
         id="path514"
         inkscape:connector-curvature="0" /></g><g
       id="g516"
       transform="matrix(1.7719482,0,0,1.7719482,385.01661,172.81862)"><path
         d="m 0,0 c 0,-11.759 -9.533,-21.292 -21.292,-21.292 -11.758,0 -21.292,9.533 -21.292,21.292 0,11.76 9.534,21.292 21.292,21.292 C -9.533,21.292 0,11.76 0,0 z"
         style="fill:none;stroke:#ffffff;stroke-width:1.20099998;stroke-linecap:butt;stroke-linejoin:miter;stroke-miterlimit:4;stroke-opacity:1;stroke-dasharray:none"
         id="path518"
         inkscape:connector-curvature="0" /></g></g></svg>